<?xml version="1.0" encoding="utf-8"?>
<!-- Generator: Adobe Illustrator 16.0.4, SVG Export Plug-In . SVG Version: 6.00 Build 0)  -->
<!DOCTYPE svg PUBLIC "-//W3C//DTD SVG 1.1//EN" "http://www.w3.org/Graphics/SVG/1.1/DTD/svg11.dtd">
<svg version="1.1" id="Ebene_1" xmlns="http://www.w3.org/2000/svg" xmlns:xlink="http://www.w3.org/1999/xlink" x="0px" y="0px"
	 width="102px" height="68px" viewBox="0 0 102 68" enable-background="new 0 0 102 68" xml:space="preserve">
<g>
	<title>Logo</title>
	<desc>Created with Sketch.</desc>
	<g id="Symbols">
		<g id="Logo">
			<g id="Page-1-Copy-5">
				<polygon id="Fill-1" fill="#B3B3B3" points="1.999,0.939 1.999,61.227 35.843,54.855 35.843,8.919 				"/>
				<polygon id="Fill-2" fill="#5487BE" points="0,0 0,60.287 33.845,53.918 33.845,7.98 				"/>
				<polygon id="Fill-3" points="17.988,68 23.584,68 23.584,60.02 17.988,60.02 				"/>
				<polygon id="Fill-4" fill="#FE0000" points="26.183,68 31.779,68 31.779,60.02 26.183,60.02 				"/>
				<polygon id="Fill-5" fill="#FFCC00" points="34.044,68 39.641,68 39.641,60.02 34.044,60.02 				"/>
				<polygon id="Fill-6" fill="#5487BE" points="42.105,68 102,68 102,60.02 42.105,60.02 				"/>
				<g id="Group-41" transform="translate(1.127737, 7.857424)">
					<path id="Fill-7" fill="#5487BE" d="M75.023,31.139h6.729c0.294-0.005,0.423,0.146,0.417,0.42v0.653
						c0.014,0.279-0.089,0.464-0.442,0.444h-0.739c-0.463-0.023-0.732,0.187-0.729,0.732v11.598c0.01,0.391,0.026,0.772,0.729,0.736
						h2.662c1.771-0.002,0.541-2.514,2-2.547h0.965v3.387c0.013,0.248-0.082,0.404-0.383,0.386H75.255
						c-0.35,0.012-0.451-0.185-0.457-0.462v-0.426c0.045-0.276,0.254-0.283,0.473-0.274h0.519c0.493,0.011,0.758-0.231,0.764-0.769
						v-11.6c-0.024-0.504-0.274-0.768-0.767-0.77h-0.729c-0.303,0-0.413-0.164-0.417-0.42v-0.688
						C74.646,31.254,74.795,31.146,75.023,31.139"/>
					<path id="Fill-9" fill="#5487BE" d="M88.495,31.139h6.729c0.292-0.005,0.421,0.146,0.416,0.42v0.653
						c0.013,0.279-0.09,0.464-0.44,0.444h-0.742c-0.463-0.023-0.732,0.187-0.729,0.732v11.598c0.008,0.391,0.026,0.772,0.73,0.736
						h2.662c1.77-0.002,0.541-2.514,1.999-2.547h0.966v3.387c0.011,0.248-0.083,0.404-0.383,0.386H88.73
						c-0.351,0.012-0.451-0.185-0.459-0.462v-0.426c0.045-0.276,0.256-0.283,0.475-0.274h0.519c0.492,0.011,0.759-0.231,0.763-0.769
						v-11.6c-0.023-0.504-0.273-0.768-0.765-0.77H88.53c-0.303,0-0.414-0.164-0.418-0.42v-0.688
						C88.116,31.254,88.269,31.146,88.495,31.139"/>
					<path id="Fill-11" fill="#5487BE" d="M53.773,46.96H41.472c-0.232,0.033-0.401-0.047-0.412-0.414v-1.528
						c0.022-0.076-0.037-0.067,0.213-0.373l9.009-11.979h-6.596c-1.017-0.004-0.537,1.946-1.46,1.968h-0.871V31.55
						c0.017-0.37,0.204-0.481,0.471-0.475h11.917c0.332-0.005,0.431,0.155,0.4,0.401v1.471l-9.422,12.71h7.139
						c0.961-0.015,0.576-2.582,1.317-2.632h0.59c0.214-0.006,0.406,0.021,0.388,0.39l-0.059,3.144
						C54.111,46.844,54.004,46.96,53.773,46.96"/>
					<path id="Fill-13" fill="#5487BE" d="M64.625,32.619c2.979,0,4.405,1.213,4.405,6.76c0,5.546-1.426,6.748-4.405,6.748
						c-2.993,0-4.396-1.202-4.396-6.748C60.23,33.832,61.632,32.619,64.625,32.619 M64.625,31.07c-5.849,0-7.94,3.037-7.94,8.309
						s2.092,8.309,7.94,8.309c5.847,0,7.95-3.037,7.95-8.309S70.472,31.07,64.625,31.07"/>
					<polygon id="Fill-15" fill="#B3B3B3" points="35.019,2.341 36.009,5.217 39.033,5.276 36.621,7.114 37.5,10.027 35.019,8.286 
						32.538,10.027 33.416,7.114 31.005,5.276 34.029,5.217 					"/>
					<polygon id="Fill-17" fill="#B3B3B3" points="35.185,35.839 36.175,38.715 39.199,38.773 36.788,40.609 37.666,43.523 
						35.185,41.783 32.705,43.523 33.583,40.609 31.171,38.773 34.195,38.715 					"/>
					<polygon id="Fill-19" fill="#B3B3B3" points="47.9,19.073 48.583,21.059 50.67,21.099 49.006,22.367 49.612,24.378 
						47.9,23.176 46.187,24.378 46.793,22.367 45.128,21.099 47.216,21.059 					"/>
					<polygon id="Fill-21" fill="#B3B3B3" points="44.418,9.181 45.27,11.656 47.873,11.707 45.797,13.287 46.553,15.794 
						44.418,14.296 42.284,15.794 43.04,13.287 40.965,11.707 43.567,11.656 					"/>
					<polygon id="Fill-23" fill="#FFFFFF" points="5.674,15.994 7.053,20.004 11.269,20.086 7.907,22.647 9.132,26.708 
						5.673,24.281 2.214,26.708 3.439,22.647 0.076,20.086 4.292,20.004 					"/>
					<polygon id="Fill-25" fill="#FFFFFF" points="22.093,0.061 23.248,3.414 26.773,3.483 23.961,5.625 24.986,9.021 22.093,6.991 
						19.201,9.021 20.225,5.625 17.414,3.483 20.938,3.414 					"/>
					<polygon id="Fill-27" fill="#FFFFFF" points="21.709,36.242 22.827,39.489 26.24,39.557 23.517,41.63 24.509,44.917 
						21.709,42.951 18.908,44.917 19.899,41.63 17.177,39.557 20.591,39.489 					"/>
					<polygon id="Fill-29" fill="#FFFFFF" points="11.753,4.897 13.03,8.605 16.928,8.682 13.819,11.05 14.951,14.806 
						11.753,12.561 8.555,14.806 9.687,11.05 6.578,8.682 10.476,8.605 					"/>
					<polygon id="Fill-31" fill="#FFFFFF" points="9.852,28.893 11.159,32.688 15.15,32.768 11.966,35.191 13.126,39.037 
						9.852,36.738 6.577,39.037 7.736,35.191 4.552,32.768 8.544,32.688 					"/>
					<polygon id="Fill-33" fill="#A2B9DB" points="33.953,1.67 34.943,4.547 37.966,4.606 35.555,6.443 36.433,9.356 33.953,7.615 
						31.472,9.356 32.35,6.443 29.938,4.606 32.962,4.547 					"/>
					<polygon id="Fill-35" fill="#A2B9DB" points="34.119,35.168 35.11,38.044 38.133,38.104 35.721,39.939 36.6,42.854 
						34.119,41.111 31.638,42.854 32.517,39.939 30.105,38.104 33.129,38.044 					"/>
					<polygon id="Fill-37" fill="#A2B9DB" points="46.834,18.402 47.517,20.387 49.605,20.428 47.94,21.696 48.547,23.707 
						46.834,22.505 45.121,23.707 45.727,21.696 44.063,20.428 46.15,20.387 					"/>
					<polygon id="Fill-39" fill="#A2B9DB" points="43.353,8.511 44.205,10.986 46.806,11.037 44.732,12.617 45.487,15.124 
						43.352,13.626 41.217,15.124 41.973,12.617 39.898,11.037 42.5,10.986 					"/>
				</g>
			</g>
		</g>
	</g>
</g>
</svg>
