<?xml version="1.0" encoding="utf-8"?>
<!-- Generator: Adobe Illustrator 16.0.4, SVG Export Plug-In . SVG Version: 6.00 Build 0)  -->
<!DOCTYPE svg PUBLIC "-//W3C//DTD SVG 1.1//EN" "http://www.w3.org/Graphics/SVG/1.1/DTD/svg11.dtd">
<svg version="1.1" id="Ebene_1" xmlns="http://www.w3.org/2000/svg" xmlns:xlink="http://www.w3.org/1999/xlink" x="0px" y="0px"
	 width="184px" height="91px" viewBox="0 0 184 91" enable-background="new 0 0 184 91" xml:space="preserve">
<title>generalzolldirektion</title>
<desc>Created with Sketch.</desc>
<g id="Symbols">
	<g id="generalzolldirektion">
		<g id="Generalzolldirektion_Logo">
			<g id="layer1">
				<polyline id="path16" fill="#FFCC00" points="46.78,61.143 49.013,61.143 49.013,91 43.803,91 43.803,61.143 46.78,61.143 				
					"/>
				<polyline id="path18" fill="#FF0000" points="46.78,31.135 49.013,31.135 49.013,61.143 43.803,61.143 43.803,31.135 
					46.78,31.135 				"/>
				<path id="path20" d="M17.226,0c-0.511,0-0.649,0.159-0.649,0.31c0,0.055,0.008,0.112,0.023,0.139
					c-0.19-0.076-0.37-0.124-0.583-0.164c-0.264-0.051-0.549-0.076-0.853-0.076c-1.089,0-1.477,0.458-1.477,0.851
					c0,0.333,0.261,0.939,0.557,1.4c0.425-0.213,0.935-0.359,1.168-0.359c0.578,0,1.092,0.552,1.365,1.207
					c-0.389,0.046-0.464,0.063-0.857,0.063c-1.061,0-1.782-0.38-1.931-0.38c-0.015,0-0.042,0.007-0.042,0.03
					c0,0.15,0.301,0.544,0.894,0.761c0.781,0.287,1.951,0.406,2.146,0.438c0,0.034-0.198,0.405-0.42,0.475
					c-0.047,0.016-0.083,0.017-0.138,0.006c-0.816-0.162-1.044-0.23-2.079-0.625c-0.032-0.012-0.05,0.008-0.05,0.042
					c0,0.41,1.06,1.316,2.008,1.663c-0.792,1.016-1.783,2.054-2.25,3.638c-0.132,0.01-0.26,0.015-0.393,0.015
					c-2.354,0-4.686-1.524-4.686-3.48c0-1.042,0.467-1.771,1.044-2.579c0.339,0.056,0.648,0.088,0.89,0.088
					c1.067,0,1.644-0.573,1.687-1.135c0-0.505-0.41-0.888-1.048-0.888c-0.992,0-2.791,0.926-4.611,0.926
					c0.18,0.136,0.478,0.279,0.835,0.416C6.713,3.743,6.001,5.032,5.73,6.412l-2.783,4.467C2.479,11.628,1.49,13.095,0,14.241
					c1.8,0,2.995,0.041,4.519-2.377l1.427-2.29c0.105,0.298,0.236,0.587,0.388,0.871l-2.837,4.553
					c-0.473,0.755-1.451,2.21-2.948,3.362c1.801,0,2.995,0.043,4.519-2.372l2.443-3.924c0.183,0.196,0.375,0.386,0.578,0.569
					l-3.448,5.535c-0.474,0.756-1.447,2.207-2.947,3.359c1.802,0,2.996,0.044,4.519-2.373l3.361-5.397
					c0.222,0.14,0.449,0.277,0.682,0.405l-4.102,6.584c-0.473,0.758-1.447,2.204-2.946,3.359c1.801,0,2.996,0.042,4.519-2.374
					l4.224-6.782c0.25,0.097,0.504,0.188,0.762,0.271l-4.773,7.663c-0.466,0.746-1.463,2.219-2.945,3.359
					c1.801,0,2.995,0.041,4.519-2.374l5.087-8.167c0.052,0.009,0.103,0.017,0.153,0.027c0.139,0.441,0.235,0.853,0.235,1.264
					c0,2.566-1.679,4.833-3.694,6.582c0.128,0.057,0.353,0.076,0.561,0.076c0.416,0,0.684-0.022,0.872-0.056
					c-0.467,1.064-1.469,2.439-1.975,3.151c-0.66-0.12-1.62-0.213-2.248-0.213c-0.659,0-0.732,0.387-0.732,0.73
					c0,0.599,0.279,1.076,0.604,1.341c0.122-0.306,0.368-0.716,1.583-0.716c0.023,0,0.066,0.003,0.122,0.007
					c-0.355,0.397-1.467,1.297-1.467,2.024c0,0.48,0.526,1.201,1.219,1.201c-0.041-0.154-0.035-0.298-0.035-0.404
					c0-0.589,0.52-1.278,0.958-1.757c-0.013,0.143-0.007,0.129-0.007,0.294c0,1.391,0.126,2.03,1.005,2.03
					c0.432,0,0.73-0.238,0.833-0.31c-0.572-0.527-0.602-0.941-0.602-1.721c0.001-0.203,0.002-0.401,0.005-0.675
					c0.003-0.178,0-0.414-0.03-0.584c0.315-0.044,0.442-0.044,0.685-0.044c0,0,1.25-0.099,1.551,0.553
					c0.339-0.312,0.833-0.752,0.833-1.238c0-0.32-0.152-0.683-0.796-0.683c-0.243,0-1.01,0.15-1.652,0.15
					c0.172-0.385,0.939-1.51,1.604-2.326c0.101,0.316,0.258,0.658,0.607,0.938c0.048-0.525,0.355-2.187,1.174-3.157
					c0.095,0.655,0.224,1.329,0.224,2.749c0,3.453-0.828,6.004-2.586,6.492c0.229,0.399,0.713,0.758,1.215,0.758
					c0.642,0,0.994-0.729,1.35-1.417c0.186,0.507,0.7,1.752,1.215,1.752c0.514,0,1.029-1.246,1.215-1.752
					c0.357,0.688,0.708,1.417,1.351,1.417c0.502,0,0.986-0.358,1.215-0.758c-1.757-0.487-2.586-3.039-2.586-6.492
					c0-1.42,0.127-2.094,0.223-2.749c0.819,0.97,1.127,2.632,1.174,3.157c0.349-0.28,0.506-0.622,0.607-0.938
					c0.665,0.816,1.432,1.941,1.605,2.326c-0.643,0-1.409-0.15-1.653-0.15c-0.643,0-0.795,0.363-0.795,0.683
					c0,0.486,0.493,0.926,0.832,1.238c0.301-0.651,1.551-0.553,1.551-0.553c0.242,0,0.37,0,0.686,0.044
					c-0.029,0.171-0.032,0.407-0.03,0.584c0.003,0.274,0.003,0.472,0.004,0.675c0,0.78-0.029,1.194-0.6,1.721
					c0.103,0.071,0.4,0.31,0.831,0.31c0.88,0,1.006-0.639,1.006-2.03c0-0.166,0.005-0.152-0.006-0.294
					c0.438,0.479,0.958,1.168,0.958,1.757c0,0.106,0.006,0.25-0.036,0.404c0.692,0,1.219-0.721,1.219-1.201
					c0-0.727-1.112-1.627-1.468-2.024c0.059-0.004,0.099-0.007,0.122-0.007c1.216,0,1.461,0.41,1.583,0.716
					c0.325-0.265,0.604-0.742,0.604-1.341c0-0.343-0.074-0.73-0.731-0.73c-0.628,0-1.588,0.093-2.249,0.213
					c-0.507-0.712-1.508-2.087-1.976-3.151c0.188,0.034,0.458,0.056,0.873,0.056c0.208,0,0.433-0.019,0.562-0.076
					c-2.016-1.75-3.695-4.016-3.695-6.582c0-0.411,0.097-0.823,0.235-1.264c0.05-0.01,0.102-0.019,0.154-0.027l5.087,8.167
					c1.523,2.414,2.718,2.374,4.518,2.374c-1.482-1.14-2.478-2.613-2.944-3.359l-4.775-7.663c0.259-0.083,0.513-0.175,0.763-0.271
					l4.224,6.782c1.523,2.416,2.717,2.374,4.519,2.374c-1.5-1.155-2.472-2.601-2.946-3.359l-4.103-6.584
					c0.233-0.128,0.461-0.266,0.682-0.405l3.362,5.397c1.523,2.417,2.717,2.373,4.517,2.373c-1.498-1.152-2.472-2.603-2.946-3.359
					l-3.446-5.535c0.202-0.183,0.396-0.373,0.576-0.569l2.444,3.923c1.524,2.416,2.716,2.373,4.519,2.373
					c-1.498-1.151-2.474-2.606-2.947-3.362l-2.838-4.553c0.153-0.284,0.283-0.573,0.389-0.871l1.426,2.29
					c1.523,2.417,2.717,2.377,4.518,2.377c-1.49-1.146-2.476-2.613-2.946-3.362l-2.783-4.467c-0.272-1.38-0.984-2.669-2.048-3.628
					c0.358-0.136,0.656-0.279,0.835-0.416c-1.817,0-3.619-0.926-4.61-0.926c-0.638,0-1.047,0.382-1.047,0.888
					c0.041,0.562,0.618,1.135,1.685,1.135c0.242,0,0.551-0.032,0.891-0.088c0.578,0.808,1.043,1.538,1.043,2.579
					c0,1.956-2.331,3.48-4.685,3.48c-0.133,0-0.26-0.005-0.393-0.015c-0.214-0.484-0.922-1.299-0.922-2.224
					c0-1.555,1.01-2.823,1.01-4.363c0-0.957-0.465-1.549-0.645-1.795c0.29-0.269,0.606-0.6,0.679-0.825
					c-0.167,0.072-0.367,0.083-0.658,0.083C19.042,0.296,18.123,0,17.226,0L17.226,0z M15.165,0.624
					c1.536,0,2.454,0.697,2.454,1.864c0,0.409-0.162,0.784-0.308,1.115c-0.106-0.442-0.332-0.896-0.62-1.238
					c-0.262-0.31-0.695-0.678-1.277-0.678c-0.268,0-0.713,0.125-0.997,0.245c-0.107-0.193-0.314-0.662-0.314-0.872
					C14.102,0.843,14.467,0.624,15.165,0.624L15.165,0.624z M17.947,0.759c0.08,0.002,0.178,0.028,0.299,0.087
					c-0.262,0.269-0.059,0.745-0.059,0.745s0.536-0.25,0.425-0.604C19.406,1.178,18.835,2.249,18,2.084
					c-0.055-0.33-0.18-0.628-0.371-0.884C17.636,0.974,17.708,0.755,17.947,0.759L17.947,0.759z M63.482,0.938
					c-1.614,0-2.691,0.619-3.229,1.856c-0.382,0.854-0.572,2.373-0.572,4.555c0,2.182,0.185,3.677,0.555,4.487
					c0.539,1.17,1.66,1.754,3.364,1.754c1.054,0,2.113-0.179,3.179-0.539V6.977H63.28v1.13h2.103v3.998
					c-0.527,0.236-1.133,0.355-1.816,0.355c-1.099,0-1.806-0.512-2.12-1.535c-0.19-0.607-0.286-1.828-0.286-3.662
					c0-1.743,0.096-2.934,0.286-3.575c0.325-1.069,1.01-1.603,2.053-1.603c1.278,0,1.917,0.714,1.917,2.143v0.219h1.464V4.278
					C66.88,2.051,65.747,0.938,63.482,0.938L63.482,0.938z M105.112,1.174v12.196h1.329V1.174H105.112L105.112,1.174z
					 M122.604,1.174v12.196h1.33V1.174H122.604L122.604,1.174z M126.44,1.174v12.196h1.329V1.174H126.44L126.44,1.174z
					 M134.446,1.174v4.503c-0.426-0.663-1.065-0.995-1.917-0.995c-1.021,0-1.732,0.461-2.137,1.383
					c-0.303,0.664-0.453,1.642-0.453,2.935c0,1.373,0.128,2.385,0.386,3.038c0.404,0.978,1.149,1.467,2.237,1.467
					c0.84,0,1.503-0.371,1.984-1.113l0.018,0.979h1.295c-0.045-0.765-0.066-1.299-0.066-1.603V1.174H134.446L134.446,1.174z
					 M154.647,1.174v12.196h1.33V1.174H154.647L154.647,1.174z M138.23,1.343v1.451h1.464V1.343H138.23L138.23,1.343z
					 M166.673,1.343v1.451h1.466V1.343H166.673L166.673,1.343z M43.802,1.428v29.857h5.21V1.428H43.802L43.802,1.428z
					 M163.512,2.709l-1.329,0.59v1.569h-1.261v0.978h1.261v5.499c0,0.776,0.118,1.311,0.353,1.603
					c0.282,0.326,0.803,0.489,1.565,0.489c0.236,0,0.562-0.022,0.977-0.067v-1.046c-0.337,0.045-0.538,0.067-0.606,0.067
					c-0.37,0-0.621-0.081-0.758-0.245c-0.133-0.163-0.201-0.48-0.201-0.953V5.847h1.514V4.869h-1.514V2.709L163.512,2.709z
					 M9.13,3.193c0.104,0.026,0.208,0.05,0.313,0.073C8.981,3.831,8.166,4.778,8.166,6.032c0,2.489,2.653,4.651,5.657,4.651
					c-0.019,0.213-0.029,0.438-0.029,0.668c0,0.368,0.02,0.71,0.056,1.032c-3.396-0.021-6.387-2.786-6.387-5.764
					C7.462,4.919,8.695,3.573,9.13,3.193L9.13,3.193z M25.635,3.193c0.435,0.38,1.667,1.726,1.667,3.427
					c0,2.958-2.947,5.703-6.313,5.764c0.041-0.334,0.063-0.679,0.063-1.032c0-0.192,0.001-0.416-0.021-0.669
					c2.966-0.042,5.568-2.185,5.568-4.65c0-1.254-0.815-2.202-1.276-2.767C25.426,3.243,25.53,3.219,25.635,3.193L25.635,3.193z
					 M71.858,4.683c-1.29,0-2.153,0.512-2.59,1.535c-0.28,0.652-0.42,1.732-0.42,3.239c0,1.327,0.163,2.289,0.488,2.885
					c0.438,0.799,1.244,1.198,2.422,1.198c1.816,0,2.764-0.944,2.843-2.833h-1.312c-0.045,1.248-0.555,1.873-1.53,1.873
					c-0.651,0-1.087-0.276-1.312-0.827c-0.157-0.382-0.235-1.007-0.235-1.873V9.305h4.44V8.917c0-1.361-0.124-2.322-0.37-2.884
					C73.877,5.133,73.07,4.683,71.858,4.683L71.858,4.683z M80.218,4.683c-0.998,0-1.732,0.45-2.203,1.35V4.869h-1.312
					c0.044,0.483,0.066,1.102,0.066,1.855v6.646h1.329V8.26c0-0.665,0.13-1.238,0.387-1.721c0.314-0.562,0.757-0.844,1.329-0.844
					c0.583,0,0.97,0.248,1.161,0.743c0.101,0.27,0.151,0.771,0.151,1.501v5.432h1.329V7.332C82.456,5.566,81.709,4.683,80.218,4.683
					L80.218,4.683z M87.636,4.683c-1.29,0-2.153,0.512-2.59,1.535c-0.281,0.652-0.421,1.732-0.421,3.239
					c0,1.327,0.162,2.289,0.487,2.885c0.438,0.799,1.245,1.198,2.423,1.198c1.816,0,2.764-0.944,2.843-2.833h-1.313
					c-0.044,1.248-0.554,1.873-1.53,1.873c-0.65,0-1.088-0.276-1.312-0.827c-0.157-0.382-0.235-1.007-0.235-1.873V9.305h4.441V8.917
					c0-1.361-0.124-2.322-0.37-2.884C89.654,5.133,88.847,4.683,87.636,4.683L87.636,4.683z M100.065,4.683
					c-0.817,0-1.468,0.168-1.95,0.506c-0.562,0.383-0.841,0.961-0.841,1.737v0.085h1.328V6.926c0-0.404,0.135-0.719,0.404-0.944
					c0.269-0.225,0.605-0.338,1.009-0.338c0.582,0,0.965,0.226,1.144,0.675c0.112,0.27,0.168,0.754,0.168,1.452v0.371
					c-1.391,0.011-2.389,0.157-2.994,0.438c-0.919,0.416-1.379,1.225-1.379,2.429c0,0.743,0.174,1.339,0.521,1.788
					c0.394,0.473,0.948,0.708,1.665,0.708c0.941,0,1.7-0.416,2.271-1.248l0.018,1.113h1.295c-0.057-0.787-0.085-1.693-0.085-2.716
					V7.517c0-0.989-0.18-1.698-0.538-2.125C101.721,4.92,101.042,4.683,100.065,4.683L100.065,4.683z M117.559,4.683
					c-1.232,0-2.073,0.444-2.522,1.333c-0.337,0.653-0.505,1.71-0.505,3.172c0,1.519,0.157,2.575,0.471,3.172
					c0.415,0.787,1.234,1.18,2.456,1.18c1.2,0,2.018-0.394,2.456-1.18c0.348-0.641,0.521-1.738,0.521-3.29
					c0-1.53-0.146-2.582-0.438-3.155C119.595,5.094,118.781,4.683,117.559,4.683L117.559,4.683z M149.736,4.683
					c-1.289,0-2.152,0.512-2.59,1.535c-0.281,0.652-0.421,1.732-0.421,3.239c0,1.327,0.163,2.289,0.487,2.885
					c0.438,0.799,1.245,1.198,2.422,1.198c1.816,0,2.766-0.944,2.843-2.833h-1.312c-0.045,1.248-0.555,1.873-1.531,1.873
					c-0.65,0-1.087-0.276-1.312-0.827c-0.156-0.382-0.234-1.007-0.234-1.873V9.305h4.439V8.917c0-1.361-0.122-2.322-0.37-2.884
					C151.755,5.133,150.948,4.683,149.736,4.683L149.736,4.683z M173.268,4.683c-1.234,0-2.073,0.444-2.523,1.333
					c-0.336,0.653-0.504,1.71-0.504,3.172c0,1.519,0.157,2.575,0.472,3.172c0.415,0.787,1.233,1.18,2.456,1.18
					c1.199,0,2.017-0.394,2.454-1.18c0.349-0.641,0.521-1.738,0.521-3.29c0-1.53-0.145-2.582-0.436-3.155
					C175.302,5.094,174.49,4.683,173.268,4.683L173.268,4.683z M181.762,4.683c-0.998,0-1.733,0.45-2.203,1.35V4.869h-1.312
					c0.045,0.483,0.067,1.102,0.067,1.855v6.646h1.33V8.26c0-0.665,0.129-1.238,0.385-1.721c0.315-0.562,0.758-0.844,1.331-0.844
					c0.582,0,0.97,0.248,1.159,0.743c0.102,0.27,0.152,0.771,0.152,1.501v5.432H184V7.332C184,5.566,183.255,4.683,181.762,4.683
					L181.762,4.683z M95.945,4.7c-0.976,0-1.693,0.427-2.153,1.282V4.869h-1.312C92.514,5.33,92.53,5.847,92.53,6.42v6.95h1.346
					V8.107c0-0.652,0.16-1.175,0.479-1.568c0.32-0.394,0.799-0.591,1.438-0.591c0.057,0,0.152,0.012,0.286,0.034
					C96.079,5.127,96.036,4.7,95.945,4.7L95.945,4.7z M145.531,4.7c-0.976,0-1.693,0.427-2.152,1.282V4.869h-1.312
					c0.034,0.461,0.051,0.978,0.051,1.552v6.95h1.345V8.107c0-0.652,0.16-1.175,0.479-1.568c0.319-0.394,0.799-0.591,1.438-0.591
					c0.057,0,0.152,0.012,0.288,0.034C145.667,5.127,145.621,4.7,145.531,4.7L145.531,4.7z M108.459,4.869v0.996h3.112l-3.313,6.426
					v1.08h4.776v-1.012h-3.347l3.313-6.444V4.869H108.459L108.459,4.869z M138.299,4.869v8.502h1.329V4.869H138.299L138.299,4.869z
					 M158.567,4.869l-2.54,3.745l2.791,4.757h1.565l-2.909-4.791l2.639-3.711H158.567L158.567,4.869z M166.741,4.869v8.502h1.328
					V4.869H166.741L166.741,4.869z M71.842,5.644c0.662,0,1.093,0.338,1.295,1.013c0.112,0.337,0.167,0.916,0.167,1.738H70.21
					c0-0.35,0.022-0.715,0.066-1.097C70.401,6.195,70.922,5.644,71.842,5.644L71.842,5.644z M87.619,5.644
					c0.662,0,1.093,0.338,1.295,1.013c0.112,0.337,0.168,0.916,0.168,1.738h-3.095c0-0.35,0.022-0.715,0.067-1.097
					C86.178,6.195,86.7,5.644,87.619,5.644L87.619,5.644z M117.525,5.644c0.695,0,1.149,0.343,1.362,1.03
					c0.113,0.371,0.168,1.04,0.168,2.007V9.98c0,0.775-0.079,1.355-0.235,1.737c-0.234,0.573-0.684,0.861-1.346,0.861
					c-0.684,0-1.144-0.298-1.378-0.895c-0.135-0.349-0.203-0.934-0.203-1.754V8.715c0-0.934,0.062-1.592,0.187-1.974
					C116.314,6.01,116.797,5.644,117.525,5.644L117.525,5.644z M149.72,5.644c0.661,0,1.094,0.338,1.295,1.013
					c0.112,0.337,0.169,0.916,0.169,1.738h-3.095c0-0.35,0.022-0.715,0.066-1.097C148.279,6.195,148.801,5.644,149.72,5.644
					L149.72,5.644z M173.234,5.644c0.696,0,1.15,0.343,1.362,1.03c0.112,0.371,0.168,1.04,0.168,2.007V9.98
					c0,0.775-0.079,1.355-0.235,1.737c-0.234,0.573-0.685,0.861-1.346,0.861c-0.684,0-1.145-0.298-1.379-0.895
					c-0.136-0.349-0.202-0.934-0.202-1.754V8.715c0-0.934,0.061-1.592,0.185-1.974C172.023,6.01,172.505,5.644,173.234,5.644
					L173.234,5.644z M132.882,5.661c0.674,0,1.127,0.354,1.363,1.063c0.168,0.495,0.251,1.321,0.251,2.48
					c0,1.045-0.077,1.799-0.234,2.26c-0.236,0.708-0.712,1.063-1.431,1.063c-0.604,0-1.024-0.348-1.261-1.046
					c-0.179-0.517-0.269-1.332-0.269-2.445c0-1.024,0.078-1.778,0.235-2.261C131.772,6.033,132.221,5.661,132.882,5.661
					L132.882,5.661z M100.991,9.069h0.336v1.012c0,0.663-0.117,1.209-0.353,1.636c-0.303,0.54-0.768,0.81-1.396,0.81
					c-0.829,0-1.245-0.546-1.245-1.637C98.333,9.676,99.22,9.069,100.991,9.069L100.991,9.069z M13.51,23.457
					c0.335,0,0.428,0.228,0.525,0.574c-1.065,1.298-1.728,2.307-1.97,3.001l-0.019,0.059h0.059c0.954,0,1.418-0.069,1.726-0.114
					c0.162-0.021,0.277-0.038,0.402-0.038c0.247,0,0.436,0.023,0.436,0.326c0,0.206-0.24,0.529-0.471,0.717
					c-0.352-0.333-0.838-0.397-1.553-0.397c-0.334,0-0.771,0.059-1.006,0.093l-0.037,0.004l-0.042,0.006l0.014,0.113
					c0.027,0.198,0.062,0.444,0.062,0.777l-0.004,0.302l-0.003,0.375c0,0.812,0.11,1.275,0.394,1.625
					c-0.073,0.027-0.191,0.049-0.269,0.049c-0.502,0-0.648-0.22-0.648-1.674c0-0.292-0.016-0.565-0.027-0.748l-0.014-0.269
					l-0.063,0.05c-0.747,0.57-1.517,1.591-1.563,2.355c-0.225-0.146-0.469-0.472-0.469-0.722c0-0.417,0.625-1.043,1.349-1.768
					l0.416-0.417l0.053-0.054l-0.137-0.033c-0.156-0.04-0.444-0.114-0.69-0.114c-0.811,0-1.318,0.153-1.632,0.496
					c-0.112-0.163-0.207-0.544-0.207-0.767c0-0.144,0.028-0.247,0.086-0.305c0.071-0.069,0.18-0.069,0.277-0.069h0.021
					c0.893,0,1.961,0.162,2.378,0.229l0.025,0.006l0.016-0.02c0.072-0.098,1.775-2.374,2.219-3.581
					C13.243,23.486,13.332,23.457,13.51,23.457L13.51,23.457z M21.255,23.457c0.177,0,0.265,0.029,0.368,0.068
					c0.442,1.207,2.146,3.483,2.217,3.581l0.016,0.02l0.025-0.006c0.417-0.067,1.485-0.229,2.379-0.229h0.02
					c0.098,0,0.207,0,0.278,0.069c0.057,0.058,0.086,0.16,0.086,0.305c0,0.223-0.095,0.604-0.207,0.767
					c-0.313-0.343-0.821-0.496-1.633-0.496c-0.245,0-0.533,0.074-0.689,0.114l-0.064,0.014l-0.073,0.019l0.469,0.471
					c0.723,0.724,1.349,1.35,1.349,1.767c0,0.25-0.244,0.577-0.469,0.723c-0.047-0.764-0.817-1.785-1.564-2.355L23.7,28.239
					l-0.013,0.268c-0.011,0.183-0.026,0.457-0.026,0.748c0,1.454-0.147,1.674-0.65,1.674c-0.077,0-0.194-0.022-0.268-0.049
					c0.282-0.35,0.395-0.813,0.395-1.625l-0.005-0.375l-0.003-0.302c0-0.333,0.034-0.579,0.062-0.777l0.014-0.113l-0.079-0.01
					c-0.234-0.034-0.671-0.093-1.006-0.093c-0.715,0-1.2,0.064-1.552,0.396c-0.231-0.188-0.471-0.511-0.471-0.717
					c0-0.303,0.189-0.326,0.435-0.326c0.125,0,0.241,0.017,0.403,0.038c0.308,0.044,0.771,0.113,1.725,0.113h0.059L22.7,27.032
					c-0.241-0.694-0.905-1.703-1.969-3C20.826,23.686,20.92,23.457,21.255,23.457L21.255,23.457z"/>
			</g>
		</g>
	</g>
</g>
</svg>
